<?xml version="1.0" encoding="iso-8859-1"?>
<!-- Generator: Adobe Illustrator 19.0.0, SVG Export Plug-In . SVG Version: 6.00 Build 0)  -->
<svg version="1.1" id="Layer_1" xmlns="http://www.w3.org/2000/svg" xmlns:xlink="http://www.w3.org/1999/xlink" x="0px" y="0px"
	 viewBox="0 0 512 512" style="enable-background:new 0 0 512 512;" xml:space="preserve">
<path style="fill:#6FB0B6;" d="M256,499.2V256h243.2v243.2H256z"/>
<path style="fill:#FF877F;" d="M134.4,256V12.8h243.2V256H134.4z"/>
<path style="fill:#A0BF7C;" d="M12.8,499.2V256H256v243.2H12.8z"/>
<g>
	<path style="fill:#573A32;" d="M290.347,199.262c1.434,3.575,3.84,6.426,8.004,8.772c1.877,0.785,3.823,1.186,5.803,1.186
		l4.659-0.759c3.729-1.237,6.673-3.849,8.303-7.364c1.647-3.558,1.835-7.526,0.452-11.725L274.313,71.134
		c-1.527-4.361-3.977-7.834-7.313-10.351c-6.741-4.975-15.804-4.736-22.238,0.034c-3.285,2.475-5.734,5.948-7.236,10.214
		L194.628,188.86c-2.389,5.487-1.314,9.813,0.026,12.484c1.775,3.541,4.659,6.059,8.26,7.253l4.54,0.777
		c2.313,0,4.548-0.589,6.613-1.715c3.362-1.801,5.914-4.702,7.484-8.653l12.698-34.79h43.477L290.347,199.262z M244.284,136.704
		l11.674-31.915l11.597,31.915H244.284z"/>
	<path style="fill:#573A32;" d="M104.875,302.327c-7.936,0-14.626,2.884-19.379,8.388c-4.087,4.787-6.161,10.675-6.161,17.502v94.78
		c0,6.716,2.074,12.553,6.212,17.399c4.71,5.436,11.401,8.329,19.328,8.329h41.378c14.029,0,25.438-4.821,33.911-14.336
		c7.535-8.414,11.366-18.765,11.366-30.763c0-9.438-2.628-17.886-7.697-24.986c-2.116-3.063-4.617-5.837-7.475-8.286
		c1.527-1.826,2.85-3.763,3.977-5.811c3.49-5.914,5.265-12.672,5.265-20.087c0-11.187-3.584-20.89-10.675-28.851
		c-7.91-8.815-18.423-13.278-31.275-13.278H104.875z M162.773,403.627c0,5.009-1.374,9.011-4.25,12.262
		c-3.063,3.516-7.014,5.137-12.45,5.137l-37.999,1.271v-36.25h37.129c5.649,0,9.813,1.673,13.09,5.274
		C161.314,394.65,162.773,398.677,162.773,403.627z M156.834,344.277c0,3.977-1.161,7.125-3.703,9.975
		c-2.577,2.91-5.922,4.275-10.547,4.275h-34.876l-1.152-28.484l0.239-0.009h35.789c6.212,0,9.003,2.338,10.675,4.25
		C155.699,336.922,156.834,340.113,156.834,344.277z"/>
	<path style="fill:#573A32;" d="M332.049,320.853c-11.836,13.926-17.852,32.324-17.852,54.673c0,22.835,6.025,41.378,17.826,55.014
		c11.861,14.029,27.725,21.154,47.172,21.154c17.041,0,31.002-4.915,41.463-14.541c8.764-7.962,14.839-18.773,18.065-32.239
		c1.289-5.666-0.35-9.737-1.903-12.092c-2.133-3.302-5.359-5.487-9.173-6.298l-3.499-0.41c-2.466,0-4.813,0.597-7.211,1.911
		c-3.635,2.116-6.084,5.7-6.878,9.873c-2.074,9.651-5.888,16.64-11.264,20.71c-4.779,3.575-11.366,5.376-19.601,5.376
		c-10.846,0-19.191-3.584-25.472-10.974c-7.151-8.414-10.778-21.026-10.778-37.487c0-16.034,3.652-28.561,10.752-37.129
		c6.554-7.637,14.891-11.349,25.498-11.349c8.183,0,14.916,1.801,20.002,5.359c5.402,3.772,8.772,9.421,10.266,16.998
		c0.964,5.76,4.053,8.9,6.263,10.377c2.313,1.638,5.009,2.509,7.799,2.509l3.277-0.401c3.678-0.862,6.716-2.884,8.926-6.05
		c2.125-3.209,2.978-6.929,2.372-11.127c-2.466-13.141-8.311-23.834-17.459-31.872c-10.487-8.951-24.422-13.5-41.438-13.5
		C359.851,299.349,343.979,306.603,332.049,320.853z"/>
	<path style="fill:#573A32;" d="M486.4,243.2h-96V25.6c0-14.14-11.46-25.6-25.6-25.6H147.2c-14.14,0-25.6,11.46-25.6,25.6v217.6h-96
		C11.46,243.2,0,254.66,0,268.8v217.6C0,500.54,11.46,512,25.6,512h460.8c14.14,0,25.6-11.46,25.6-25.6V268.8
		C512,254.66,500.54,243.2,486.4,243.2z M243.2,486.4H25.6V268.8h121.6h96V486.4z M147.2,243.2V25.6h217.6v217.6h-96h-25.6H147.2z
		 M486.4,486.4H268.8V268.8h96h121.6V486.4z"/>
</g>
<g>
</g>
<g>
</g>
<g>
</g>
<g>
</g>
<g>
</g>
<g>
</g>
<g>
</g>
<g>
</g>
<g>
</g>
<g>
</g>
<g>
</g>
<g>
</g>
<g>
</g>
<g>
</g>
<g>
</g>
</svg>
