<svg xmlns="http://www.w3.org/2000/svg" xmlns:xlink="http://www.w3.org/1999/xlink" viewBox="0 0 386.99 381.85"><defs><style>.cls-1,.cls-2,.cls-3,.cls-4,.cls-5{stroke:#1d1d1b;stroke-miterlimit:10;}.cls-1{fill:url(#linear-gradient);}.cls-2{fill:#8ebac6;}.cls-4{fill:#f6a316;}.cls-5{fill:#c0c0bf;}</style><linearGradient id="linear-gradient" x1="260.66" y1="72.5" x2="262.19" y2="89.35" gradientUnits="userSpaceOnUse"><stop offset="0" stop-color="#fff"/><stop offset="1"/></linearGradient></defs><title>MyLove</title><g id="Layer_4" data-name="Layer 4"><path class="cls-1" d="M346.73,475.17,184.79,305.53c-1.22.4-13.54,3.16-19.81,3.42-18.24.76-35.37-9.8-43.56-21.76C115.3,278.24,102,246,102,246l10.67-11,36.52,41.41S176.35,267,181.39,262s12.84-24.94,12.84-24.94L157.69,197.5l10.91-10.76s31.79,13.61,40.78,19.66c12,8.08,22.74,25.12,22.14,43.37-.21,6.27-3.89,18-4.28,19.24L394.13,442.88c1.21-.43,10-5.33,16.22-5.74,18.22-1.17,33.22,4.76,41.68,16.54,6.33,8.8,21.57,42.64,21.57,42.64l-10.41,11.24-45.5-40.62s-20.11,8.2-25,13.3-16,29-16,29l42.36,36.82-10.66,11S375.08,542.3,366,536.46c-12.22-7.81-23.31-24.59-23.12-42.85.06-6.27,3.54-17.21,3.9-18.44" transform="translate(-87.21 -186.14)"/></g><g id="Layer_1" data-name="Layer 1"><path class="cls-2" d="M332.53,475.17,170.58,305.53c-1.22.4-13.53,3.16-19.81,3.42-18.23.76-35.36-9.8-43.55-21.76C101.1,278.24,87.81,246,87.81,246l10.67-11L135,276.38S162.15,267,167.18,262,180,237.06,180,237.06L143.49,197.5l10.9-10.76s31.79,13.61,40.79,19.66c12,8.08,22.74,25.12,22.13,43.37-.21,6.27-3.89,18-4.27,19.24L379.93,442.88c1.21-.43,10-5.33,16.22-5.74,18.22-1.17,33.22,4.76,41.68,16.54,6.32,8.8,21.57,42.64,21.57,42.64L449,507.56l-45.5-40.62s-20.1,8.2-25,13.3-16,29-16,29l42.35,36.82-10.65,11s-33.31-14.76-42.45-20.6c-12.21-7.81-23.3-24.59-23.12-42.85.07-6.27,3.55-17.21,3.91-18.44" transform="translate(-87.21 -186.14)"/></g><g id="Layer_5" data-name="Layer 5"><path class="cls-3" d="M109.9,549.11c6.2,6.19,31.28,18.28,31.28,18.28l63-63s15.64-30.83,21-36c5-4.8,23.72-8.77,23.72-8.77l8.13-8.13-44-44.05-5.51-5.5-8.12,8.12s-4,18.71-8.78,23.73c-5.13,5.36-35.95,21-35.95,21l-63,63S103.71,542.92,109.9,549.11Z" transform="translate(-87.21 -186.14)"/><polyline class="cls-3" points="140.86 234.51 306.59 68.78 309.53 48.97 345.59 29.79 353.87 38.06 334.68 74.12 314.87 77.06 149.14 242.79"/></g><g id="Layer_2" data-name="Layer 2"><path class="cls-4" d="M106.09,538.78c6.19,6.2,31.28,18.28,31.28,18.28l63-63s15.64-30.83,21-36c5-4.8,23.73-8.77,23.73-8.77l8.12-8.12-44.05-44.06-5.5-5.5-8.13,8.12s-4,18.72-8.77,23.73c-5.13,5.36-36,21-36,21l-63,63S99.89,532.59,106.09,538.78Z" transform="translate(-87.21 -186.14)"/><polyline class="cls-5" points="137.04 224.19 302.78 58.45 305.71 38.64 341.77 19.46 350.05 27.73 330.87 63.8 311.06 66.73 145.32 232.46"/></g></svg>